<svg width="487" height="86" viewBox="0 0 487 86" fill="none" xmlns="http://www.w3.org/2000/svg">
<path d="M328.118 85.5878V0H364.799C380.693 0 391.698 9.78146 391.698 23.231C391.698 34.2351 385.584 42.4271 377.637 44.8724C387.418 44.8724 390.475 48.2959 390.475 56.8547V85.5878H378.248V59.9114C378.248 53.1867 376.414 51.3527 369.689 51.3527H340.345V85.5878H328.118ZM340.345 40.3485H362.965C373.357 40.3485 379.471 33.6238 379.471 25.065C379.471 15.8949 373.357 11.0041 362.965 11.0041H340.345V40.3485Z" fill="black"/>
<path d="M248.357 85.5878V0H310.714V11.0041H260.584V36.0691H303.378V47.0733H260.584V74.5836H311.937V85.5878H248.357Z" fill="black"/>
<path d="M192.507 85.5878V11.0041H161.939V0H235.3V11.0041H204.733V85.5878H192.507Z" fill="black"/>
<path d="M79.7607 85.5878V0H96.8783L136.615 70.7933V0H148.842V85.5878H131.725L91.9876 14.7945V85.5878H79.7607Z" fill="black"/>
<path d="M0 85.5878V0H62.3568V11.0041H12.2268V36.0691H55.0207V47.0733H12.2268V74.5836H63.5795V85.5878H0Z" fill="black"/>
<path d="M485.238 0H437.504C436.949 0 436.499 0.45032 436.499 1.00582V46.7843C436.499 47.3398 436.048 47.7901 435.493 47.7901H410.568C410.013 47.7901 409.562 48.2404 409.562 48.7959V84.5819C409.562 85.1374 410.013 85.5877 410.568 85.5877H485.238C485.794 85.5877 486.244 85.1374 486.244 84.5819V1.00582C486.244 0.45032 485.794 0 485.238 0Z" fill="black"/>
</svg>
